<svg xmlns:xlink="http://www.w3.org/1999/xlink" viewBox="0 0 15 15" fill="none" xmlns="http://www.w3.org/2000/svg" class="h-3 w-3 text-skin-icon-primary" width="21"  height="21" ><path d="M7.5 1.875c-1.521 0-2.755 1.223-2.755 2.732 0 1.51 1.234 2.732 2.755 2.732s2.755-1.223 2.755-2.732c0-1.509-1.234-2.732-2.755-2.732ZM9.126 8.555a10.398 10.398 0 0 0-3.252 0l-.115.018a3.109 3.109 0 0 0-2.634 3.063c0 .822.672 1.489 1.502 1.489h5.746c.83 0 1.502-.667 1.502-1.49a3.109 3.109 0 0 0-2.634-3.062l-.115-.018Z" fill="#486BFC"></path></svg>