<svg xmlns:xlink="http://www.w3.org/1999/xlink" width="105" viewBox="0 0 85 20" fill="none" xmlns="http://www.w3.org/2000/svg" class="svg-bottom-v3" style="bottom: 22px;left:18px;width:105px;" height="25" >
        <path fill-rule="evenodd" clip-rule="evenodd" d="M22.5506 2.09823C23.1621 3.11597 22.9657 4.20177 21.2637 9.20229C20.1593 12.4492 19.3839 15.2027 19.5412 15.322C19.6984 15.4412 21.5595 13.6483 23.6766 11.3378C31.518 2.78114 35.6564 -0.202181 37.6205 1.28697C38.7303 2.12838 38.37 5.19164 36.5728 10.1931C35.6938 12.6392 35.0612 14.8341 35.1666 15.0707C35.2727 15.3069 37.7115 12.9855 40.5866 9.91169C47.2109 2.8291 50.0456 0.668925 52.182 1.07547C53.5767 1.34087 53.7346 1.59073 53.734 3.53211C53.734 4.72069 53.0405 7.61037 52.1934 9.95418C51.3463 12.2975 50.7565 14.4499 50.8824 14.7368C51.0089 15.0241 53.3966 12.8059 56.1891 9.80755C62.9544 2.54269 65.1836 0.785408 67.3905 0.976805C68.9335 1.1111 69.116 1.313 69.2841 3.07851C69.3871 4.16066 68.7702 7.08597 67.9008 9.63899C67.0374 12.1728 66.4253 14.4604 66.5404 14.7222C66.6555 14.9839 69.2871 12.4848 72.3881 9.16895C79.7499 1.2961 82.358 -0.339676 84.4709 1.59074C85.2987 2.34673 85.0096 5.77817 83.8678 8.74824C83.2545 10.3447 83.1322 10.4091 81.5302 9.98569C79.8463 9.54078 79.8426 9.53119 80.5723 7.38791C81.2892 5.28163 81.1964 4.34931 80.362 5.26656C74.6962 11.4913 69.5384 16.6416 67.8321 17.7772C65.239 19.5035 63.3442 19.4747 62.5224 17.6964C61.9754 16.5119 62.3073 15.1931 65.6005 5.46481C65.9747 4.35845 65.9403 4.36576 64.4919 5.6932C63.6702 6.44691 61.3952 8.81082 59.4371 10.9463C52.4543 18.5615 48.511 20.8263 47.1079 18.0276C46.4698 16.7554 46.9277 14.444 48.8707 9.12829C49.5576 7.24904 50.1197 5.5283 50.1197 5.30401C50.1197 4.469 48.3092 6.09061 44.1744 10.6311C39.1123 16.1885 35.3937 19.1686 33.5218 19.1686C30.8534 19.1686 30.7637 16.2917 33.2176 9.42886C34.3177 6.35099 34.6949 4.6677 34.2159 4.96918C33.7923 5.2355 30.904 8.14527 27.797 11.436C20.998 18.636 18.5633 20.1841 16.501 18.6205C15.3431 17.7425 15.6576 15.1845 17.5855 9.80435C18.576 7.04075 19.3875 4.69648 19.3894 4.59461C19.402 3.93683 16.5233 6.63602 13.0627 10.5279C8.36509 15.8098 4.28506 19.1686 2.56678 19.1686C0.040561 19.1686 -0.360091 16.6627 1.37627 11.7174C1.87633 10.2922 2.22818 10.0017 3.30964 10.1186C4.7532 10.2744 4.94539 11.2702 4.0754 14.0868C3.78079 15.0424 3.81814 15.5262 4.17481 15.359C4.49111 15.211 7.24869 12.4172 10.3033 9.15068C17.9307 0.994162 20.8703 -0.698716 22.5506 2.09823Z" fill="url(&quot;#paint0_linear_1_1162&quot;)"></path>
        <defs>
        <linearGradient id="paint0_linear_1_1162" x1="86.6609" y1="-1.59912" x2="-13.2929" y2="16.6733" gradientUnits="userSpaceOnUse">
        <stop stop-color="white"></stop>
        <stop offset="1" stop-color="#FFB2F8"></stop>
        </linearGradient>
        <linearGradient id="paint0_linear_1_1162" x1="86.6609" y1="-1.59912" x2="-13.2929" y2="16.6733" gradientUnits="userSpaceOnUse">
        <stop stop-color="white"></stop>
        <stop offset="1" stop-color="#FFB2F8"></stop>
        </linearGradient></defs>
        </svg>