<svg xmlns:xlink="http://www.w3.org/1999/xlink" xmlns="http://www.w3.org/2000/svg" width="157" height="157" fill="none" viewBox="0 0 157 157" class="absolute left-1/2 top-1/2 -translate-x-1/2 -translate-y-1/2"><path d="M47.7678 9.81189C50.0104 4.7313 56.1139 2.64931 60.9938 5.30036L67.1271 8.63234C71.3748 10.9399 76.5722 10.5915 80.4739 7.73765L86.1076 3.61688C90.59 0.338234 96.9168 1.58696 99.8174 6.32278L103.463 12.275C105.988 16.3973 110.663 18.6943 115.469 18.1736L122.408 17.4217C127.929 16.8235 132.784 21.0684 132.928 26.62L133.109 33.5976C133.235 38.4299 136.135 42.7569 140.558 44.7089L146.943 47.5274C152.024 49.7699 154.106 55.8735 151.455 60.7534L148.123 66.8867C145.815 71.1344 146.164 76.3318 149.017 80.2335L153.138 85.8672C156.417 90.3495 155.168 96.6764 150.432 99.577L144.48 103.223C140.358 105.747 138.061 110.423 138.582 115.229L139.333 122.168C139.932 127.689 135.687 132.544 130.135 132.688L123.157 132.869C118.325 132.994 113.998 135.895 112.046 140.317L109.228 146.703C106.985 151.783 100.882 153.865 96.0017 151.214L89.8684 147.882C85.6207 145.575 80.4233 145.923 76.5216 148.777L70.8879 152.898C66.4055 156.176 60.0787 154.928 57.1781 150.192L53.5325 144.24C51.0077 140.117 46.3324 137.82 41.5265 138.341L34.5872 139.093C29.066 139.691 24.2112 135.446 24.0671 129.895L23.8861 122.917C23.7607 118.085 20.8602 113.758 16.4379 111.806L10.0523 108.987C4.97173 106.745 2.88973 100.641 5.54079 95.7612L8.87276 89.628C11.1803 85.3803 10.832 80.1829 7.97807 76.2812L3.85731 70.6475C0.578665 66.1651 1.82739 59.8383 6.56321 56.9377L12.5154 53.2921C16.6377 50.7673 18.9347 46.092 18.414 41.2861L17.6621 34.3468C17.064 28.8256 21.3088 23.9708 26.8604 23.8267L33.838 23.6456C38.6704 23.5202 42.9973 20.6198 44.9493 16.1974L47.7678 9.81189Z" fill="#F4B84E" stroke="url(&quot;#paint0_linear_8003_107104&quot;)" stroke-width="3px"></path><defs><linearGradient id="paint0_linear_8003_107104" x1="51.2174" y1="-1.71787" x2="105.778" y2="158.233" gradientUnits="userSpaceOnUse"><stop stop-color="white" stop-opacity="0.35"></stop><stop offset="1" stop-color="white" stop-opacity="0"></stop></linearGradient><linearGradient id="paint0_linear_8003_107104" x1="51.2174" y1="-1.71787" x2="105.778" y2="158.233" gradientUnits="userSpaceOnUse"><stop stop-color="white" stop-opacity="0.35"></stop><stop offset="1" stop-color="white" stop-opacity="0"></stop></linearGradient></defs></svg>