<svg xmlns="http://www.w3.org/2000/svg" width="75" height="57" viewBox="0 0 75 57" fill="none"><path d="M68.7222 4.22305C70.1216 3.39552 71.4381 2.44457 72.8041 1.56641C72.9876 1.81482 73.1184 2.09805 73.1599 2.4066C73.2812 3.18508 73.4296 3.96672 73.4057 4.75786C73.2796 6.56482 72.2663 8.22147 70.9227 9.40501C68.178 11.4699 65.2514 13.28 62.3887 15.1772C59.9903 16.6408 57.702 18.28 55.27 19.693C54.0381 20.53 52.7902 21.3449 51.5152 22.117C49.9019 23.231 48.1722 24.1613 46.5637 25.2816C44.0392 26.8338 41.5355 28.4161 39.0254 29.9889C38.4062 30.3481 37.8174 30.8908 37.0817 30.9636C36.2551 30.3686 35.6759 29.4873 35.0344 28.7072C34.6067 28.0601 34.0211 27.5174 33.6716 26.8196C35.569 25.6376 37.3785 24.3243 39.2679 23.1281C40.1567 22.5268 41.1062 22.0158 41.9807 21.3908C44.0647 19.9477 46.2796 18.7056 48.3732 17.2753C50.9711 15.6424 53.5722 14.0158 56.1413 12.337C59.2099 10.4161 62.1876 8.35122 65.2929 6.48729C66.4211 5.71198 67.5541 4.93982 68.7222 4.22305Z" fill="#FFC576"></path><path d="M66.1165 16.364C66.7341 16.0285 67.2718 15.5001 67.9947 15.394C68.183 16.5301 68.4479 17.6741 68.3729 18.8323C68.0745 20.4858 67.267 22.0697 66.0351 23.2295C63.9782 24.6773 61.9341 26.1488 59.8069 27.4969C58.5766 28.4162 57.1867 29.0918 55.9452 29.9937C53.992 31.2137 52.0149 32.3988 50.108 33.6915C49.0532 34.3402 47.9904 34.9779 46.9389 35.6346C45.7341 36.4558 44.5006 37.239 43.2192 37.9399C43.0357 38.027 42.7851 38.1852 42.6335 37.9589C42.099 37.4241 41.6649 36.8039 41.1814 36.2279C40.5639 35.4336 39.8458 34.7137 39.3271 33.8466C41.5787 32.364 43.749 30.7611 46.0436 29.3402C47.2069 28.5554 48.3798 27.7817 49.5319 26.9795C51.292 25.8845 53.0154 24.7342 54.7325 23.5744C57.3734 21.9241 59.9282 20.1393 62.6218 18.5728C63.7915 17.845 64.9213 17.0539 66.1165 16.364Z" fill="#FFC576"></path><path d="M7.61799 21.9855C9.04937 21.6817 10.519 21.7608 11.9728 21.7466C14.0951 21.7703 16.1808 22.2972 18.118 23.1422C19.6531 23.6738 20.9552 24.6564 22.3004 25.5314C24.3494 27.0535 26.1877 28.8415 27.8903 30.7339C28.9004 31.9903 30.0318 33.1485 30.9749 34.457C32.2483 36.245 33.6813 37.9159 34.9515 39.7086C35.6983 40.802 36.5568 41.8146 37.3627 42.8653C38.7909 44.5488 40.2542 46.2228 41.9951 47.5994C43.0882 48.4365 44.2818 49.1975 45.635 49.5377C46.2781 49.6991 46.9531 49.6532 47.5962 49.8035C48.2776 50.514 48.7387 51.3985 49.3898 52.1342C49.9978 52.8035 50.5691 53.5077 51.1148 54.2276C51.2233 54.3953 51.4084 54.5789 51.2823 54.7893C50.5499 55.082 49.7488 54.9887 48.9829 55.0567C46.9547 55.3067 44.9026 54.9254 42.9558 54.3763C39.5393 53.3146 36.6159 51.0931 34.1696 48.552C30.8169 44.9096 28.0323 40.8099 25.0962 36.8415C23.6249 34.7909 22.0052 32.8447 20.2675 31.0108C18.3813 29.2529 16.4201 27.495 14.044 26.4127C11.1605 24.957 7.85416 24.389 4.64033 24.6912C3.5616 24.8384 2.51799 25.1928 1.42969 25.2766C1.66267 24.8463 1.9483 24.438 2.34724 24.1437C3.81054 22.8747 5.73182 22.2861 7.61799 21.9855Z" fill="#FFC576"></path><path d="M1.43604 26.3039C3.31263 26.0903 5.21795 26.1742 7.08976 26.4036C8.89455 26.7169 10.7376 27.046 12.3701 27.9115C14.0919 28.8071 15.5552 30.1156 16.8908 31.5001C18.1898 33.016 19.5653 34.4669 20.7685 36.0587C23.3648 39.1425 25.7249 42.4131 28.3339 45.4859C30.7371 48.6156 33.2775 51.6631 36.1929 54.3403C35.3743 54.4084 34.5717 54.2201 33.7754 54.0587C32.1334 53.7675 30.5759 53.1441 29.0552 52.4843C27.7164 51.7486 26.3727 50.9938 25.1759 50.0381C23.5594 48.6963 21.9972 47.277 20.6328 45.6789C17.6632 42.4732 15.1754 38.872 12.3094 35.5808C11.0903 34.0096 9.65572 32.622 8.23391 31.2359C6.20093 29.3008 3.89986 27.6536 1.43604 26.3039Z" fill="#FFC576"></path><path d="M56.6057 33.1898C58.5589 31.9461 60.4562 30.617 62.4429 29.4287C62.8435 30.3259 62.9935 31.31 63.1052 32.2784C63.169 34.5363 61.6706 36.4619 59.9727 37.8069C58.819 38.674 57.6701 39.5616 56.4014 40.261C54.5887 41.2578 52.8669 42.4113 51.1738 43.5948C50.3121 44.1312 49.4583 44.6929 48.5248 45.1028C47.3647 44.0189 46.4791 42.6898 45.3908 41.5411C45.1626 41.31 44.9823 41.0411 44.853 40.7467C46.9993 39.492 49.0211 38.0426 51.1626 36.7816C52.9818 35.5933 54.7482 34.3227 56.6057 33.1898Z" fill="#FFC576"></path><path d="M56.6027 43.8008C56.8612 43.6268 57.3144 43.3815 57.5266 43.7454C57.9958 44.3356 58.4282 44.9543 58.9404 45.5097C59.7032 46.3499 60.2889 47.3277 61.0341 48.1806C62.0362 49.3594 62.9426 50.6157 63.9128 51.8198C64.3373 52.3594 64.8942 52.8341 65.0761 53.5223C63.4293 53.5698 61.8016 53.8815 60.1516 53.8894C59.2899 53.9306 58.433 54.0303 57.5777 54.1236C56.941 54.1647 56.2771 54.3119 55.65 54.1568C54.4069 52.5429 53.1016 50.9685 51.9048 49.3166C51.5553 48.8372 51.1165 48.4195 50.8229 47.9021C50.7607 47.7027 50.9522 47.6015 51.0846 47.5002C52.8974 46.228 54.7963 45.0809 56.6027 43.8008Z" fill="#FFC576"></path></svg>