<svg xmlns="http://www.w3.org/2000/svg" width="75" height="75" viewBox="0 0 75 75" fill="none"><path d="M41.8815 6.84945C45.2715 5.869 48.8742 5.54718 52.3733 6.04491C56.2447 6.56718 60.0124 8.01673 63.1365 10.3785C66.0438 12.5617 68.3769 15.4813 69.9751 18.7404C68.4356 17.6099 66.8074 16.5108 64.9092 16.1004C62.3824 15.5604 59.6483 15.5808 57.2456 16.6131C56.1683 17.0481 55.1892 17.6795 54.2429 18.3449C50.5051 21.229 47.6401 25.1467 43.5833 27.6326C40.6583 29.4749 37.1292 30.319 33.6874 30.019C31.9242 29.8417 30.146 29.2567 28.8001 28.069C27.5906 27.0204 26.8665 25.4631 26.7806 23.869C26.6851 22.2258 27.1951 20.6195 27.8279 19.1235C30.4119 13.234 35.7165 8.64945 41.8815 6.84945Z" fill="#FFC576"></path><path d="M51.4801 25.3102C52.3023 24.1402 53.6087 23.1638 55.0937 23.1938C56.3046 23.1652 57.4255 23.8088 58.2492 24.6556C60.3328 26.7324 61.5601 29.5783 61.9296 32.4761C62.5542 37.8829 59.9128 43.512 55.3923 46.5297C53.0387 48.0992 50.1914 48.8752 47.3728 48.8383C48.3614 48.2779 49.3978 47.7365 50.1328 46.842C51.1419 45.6188 51.926 44.1365 52.0487 42.5329C52.1223 41.7911 52.0624 41.0424 51.9396 40.3088C51.431 37.2802 49.916 34.4711 49.7987 31.3674C49.6814 29.2374 50.2746 27.0706 51.4801 25.3102Z" fill="#FFC576"></path><path d="M7.48098 24.9421C9.57689 24.0271 11.9373 23.9766 14.171 24.2903C16.6242 24.6285 18.9764 25.5844 21.0178 26.978C24.7814 29.468 27.506 33.1744 31.0992 35.8689C33.0205 37.3266 35.3387 38.3412 37.7728 38.4298C39.8496 38.4994 41.9919 38.2621 43.8723 37.3239C44.9073 36.863 45.7692 36.1144 46.7278 35.5266C45.5633 37.9457 43.946 40.1466 42.0287 42.0244C38.8105 45.1907 34.5683 47.2348 30.1364 48.0039C25.4892 48.8098 20.5978 48.3039 16.2451 46.4712C12.5973 44.9289 9.39553 42.3775 7.03098 39.2044C5.62643 37.2953 4.46871 35.1707 3.85916 32.8689C3.4828 31.4807 3.44189 29.9725 3.92189 28.6035C4.50143 26.9357 5.87325 25.6253 7.48098 24.9421Z" fill="#FFC576"></path><path d="M33.6574 49.7221C35.186 48.893 36.9997 48.5835 38.7137 48.8944C39.8183 49.1016 40.9242 49.718 41.4124 50.7707C41.9033 51.7689 41.6892 52.9525 41.2515 53.9289C40.3801 55.9048 38.8487 57.5644 37.0133 58.688C32.561 61.4057 26.2487 60.6857 22.6528 56.858C21.7706 55.8762 20.981 54.7757 20.4983 53.5403C21.1487 53.9998 21.7801 54.5166 22.5506 54.7607C23.9415 55.2244 25.5233 55.2898 26.8869 54.698C27.3056 54.5221 27.6969 54.2903 28.0815 54.0503C30.0369 52.7344 31.5519 50.8294 33.6574 49.7221Z" fill="#FFC576"></path><path d="M57.2454 16.6132C59.6481 15.5809 62.3822 15.5605 64.909 16.1005C66.8072 16.5109 68.4354 17.61 69.975 18.7405C70.6404 19.7318 70.8927 21.0914 70.3322 22.1864C69.945 23.0305 69.0927 23.5705 68.2036 23.7546C66.8563 24.0287 65.4613 23.7941 64.1618 23.3973C61.7959 22.6527 59.7259 21.2441 57.6286 19.9596C56.5472 19.3391 55.474 18.6205 54.2427 18.345C55.189 17.6796 56.1681 17.0482 57.2454 16.6132Z" fill="#C08C46"></path><path d="M35.9959 33.2675C38.2132 31.9053 40.5791 30.5539 43.2287 30.3507C44.4573 30.2566 45.8646 30.4203 46.7223 31.4048C47.7491 32.5407 47.5855 34.3434 46.7278 35.5271C45.7691 36.1148 44.9073 36.8634 43.8723 37.3244C41.9919 38.2625 39.8496 38.4998 37.7728 38.4303C35.3387 38.3416 33.0205 37.3271 31.0991 35.8694C32.8814 35.3225 34.4114 34.2153 35.9959 33.2675Z" fill="#C08C46"></path><path d="M48.4255 42.6968C49.6078 41.9195 50.9101 41.2991 51.9396 40.3091C52.0624 41.0427 52.1224 41.7914 52.0487 42.5332C51.926 44.1368 51.1419 45.6191 50.1328 46.8423C49.3978 47.7368 48.3614 48.2782 47.3728 48.8386C46.4974 48.9736 45.4924 48.5959 45.1092 47.7586C44.7887 47.0904 44.9933 46.3145 45.3287 45.6968C46.0201 44.4014 47.2119 43.4741 48.4255 42.6968Z" fill="#C08C46"></path><path d="M21.0887 51.1198C22.2341 50.8034 23.4314 51.2357 24.4323 51.7934C25.6896 52.4793 26.7519 53.4939 28.0814 54.0502C27.6969 54.2902 27.3055 54.5221 26.8869 54.698C25.5232 55.2898 23.9414 55.2243 22.5505 54.7607C21.78 54.5166 21.1487 53.9998 20.4982 53.5402C19.905 52.7793 20.0987 51.4402 21.0887 51.1198Z" fill="#C08C46"></path><path d="M30.8387 64.1141C38.0591 63.941 45.2932 64.0214 52.496 64.5764C54.1501 64.7155 55.8014 64.8941 57.4419 65.1573C58.2805 65.3141 59.141 65.456 59.921 65.8228C60.1269 65.9073 60.3301 66.1078 60.2073 66.3478C59.8637 66.6873 59.3551 66.7773 58.9091 66.9191C56.1832 67.556 53.3782 67.7319 50.5951 67.95C43.8328 68.3714 37.0501 68.445 30.2769 68.2582C26.591 68.141 22.9023 67.9705 19.2341 67.5669C17.8528 67.406 16.466 67.2246 15.1187 66.87C14.7232 66.7378 14.2732 66.6478 13.9814 66.3273C13.8519 65.9646 14.3087 65.8187 14.5596 65.696C15.791 65.25 17.1041 65.1069 18.3928 64.9214C22.5219 64.4155 26.6837 64.2341 30.8387 64.1141Z" fill="#515361"></path></svg>