<svg xmlns="http://www.w3.org/2000/svg" width="75" height="69" viewBox="0 0 75 69" fill="none"><path d="M57.7742 14.1904C58.3613 13.1626 60.0604 13.4191 60.3821 14.539C60.7078 15.16 59.8533 15.5928 59.3264 15.4966C58.5543 15.4766 58.0677 14.8235 57.7742 14.1904ZM58.1522 14.1743C58.5201 14.9096 59.3868 15.4505 60.1569 14.8956C59.9136 14.555 59.7708 14.0301 59.3063 13.9279C58.8982 13.7817 58.5081 14.0061 58.1522 14.1743Z" fill="#FFC576"></path><path d="M8.55353 1.51057C10.7332 1.30823 12.9228 1.60473 15.0723 1.96736C20.5676 2.91898 25.8578 4.85429 30.7941 7.42469C33.5187 8.75296 36.0059 10.5601 38.1112 12.7338C38.6842 13.2707 38.1072 14.02 37.9443 14.609C37.3652 16.5563 37.516 18.6379 37.8659 20.6132C38.2177 22.7008 38.9798 24.7103 40.0817 26.5173C38.4952 25.3654 37.6165 23.4902 37.0636 21.665C36.5388 19.6376 36.3699 17.524 36.4845 15.4364C36.4825 15.0397 36.5468 14.613 36.386 14.2403C35.9074 13.5712 35.1554 13.1765 34.4919 12.7157C31.4436 10.7864 28.2807 9.0074 24.9027 7.71318C19.9946 5.76185 14.6742 4.72006 9.38195 5.0947C8.81292 3.99082 8.42485 2.76272 8.55353 1.51057Z" fill="#FFC576"></path><path d="M59.6722 5.10061C61.0073 4.87423 62.4088 4.67789 63.7439 4.9764C64.3572 5.17274 64.0496 5.85991 63.6334 6.08029C61.4879 7.6089 59.2801 9.04937 57.1106 10.5439C56.7687 10.2855 56.4752 9.82469 55.9886 9.87678C55.4497 10.2795 54.9671 10.7523 54.5147 11.2471C54.1126 10.8484 53.7647 10.2053 54.193 9.69046C55.0013 8.64868 56.067 7.8393 57.004 6.91772C57.8023 6.20651 58.5482 5.26489 59.6722 5.10061ZM61.7714 5.25888C60.76 5.65957 59.7145 6.07027 58.8599 6.75344C58.4356 7.11005 57.9068 7.85933 58.506 8.3081C59.3465 8.13981 60.0844 7.68103 60.8505 7.3164C61.6548 6.87765 62.4953 6.48698 63.2372 5.94205C63.4081 5.72368 63.9892 5.43919 63.5811 5.14669C62.9879 4.97841 62.3485 5.07858 61.7714 5.25888Z" fill="#FFC576"></path><path d="M9.32579 5.55949C13.3573 5.20689 17.4451 5.69773 21.3037 6.90579C26.3486 8.40035 31.1019 10.8085 35.4009 13.8236C35.7125 14.0781 36.1086 14.3746 36.0805 14.8253C35.986 17.6482 36.1026 20.5632 37.1803 23.2117C38.246 25.8502 40.5041 27.9899 43.2326 28.8493C47.0811 30.1576 51.4283 29.0116 54.5168 26.4953C55.7071 29.0657 55.8821 32.0909 54.923 34.7654C53.6582 38.5139 50.427 41.1744 47.1314 43.1498C42.8486 45.4958 37.9645 46.9964 33.0423 46.8C35.3265 45.1532 37.4578 43.1979 38.9076 40.7617C40.6669 37.9068 40.8941 34.1664 39.5148 31.1172C37.9665 27.7555 34.8057 25.5377 31.7132 23.6945C28.12 21.8033 24.1629 20.5351 20.1073 20.1685C19.1421 20.0383 18.0523 20.3047 17.2098 19.6977C16.1361 18.9664 15.1207 18.137 14.2742 17.1533C14.9719 16.6605 15.8667 16.7466 16.677 16.6965C18.4464 16.6044 20.2159 16.8608 21.921 17.3196C24.921 18.0509 27.8305 19.2569 30.3539 21.05C30.5852 21.2063 30.8405 21.3204 31.114 21.3886C30.8807 20.8536 30.3318 20.6092 29.8774 20.3007C27.2051 18.5637 24.183 17.3897 21.0684 16.7326C18.9029 16.2598 16.6488 16.1616 14.4572 16.5042C13.7011 15.8451 12.9913 15.1319 12.3318 14.3746C12.1629 14.1502 11.9277 13.9418 11.8915 13.6453C13.5946 12.7318 15.6153 12.7478 17.4893 12.9642C21.2232 13.471 24.7299 14.9375 28.1602 16.4281C29.0289 16.7967 29.8513 17.2815 30.7621 17.546C30.4826 17.0812 29.9679 16.8889 29.5074 16.6605C26.2802 15.1679 23.0007 13.7014 19.5121 12.9241C17.057 12.3812 14.437 12.1888 12.0302 13.0503C11.2118 11.9564 10.5141 10.7784 9.929 9.54831C11.0128 8.98134 12.2775 9.03343 13.4659 8.99336C15.8546 9.02942 18.2554 9.31792 20.5336 10.0592C23.8774 11.0168 27.0121 12.5474 30.1126 14.0901C30.0061 13.8156 29.8452 13.5552 29.5677 13.4289C26.2038 11.6058 22.6348 10.1313 18.9069 9.22576C16.0738 8.57665 13.1341 8.45244 10.2487 8.79102C9.75407 7.86543 9.2353 6.93785 8.89147 5.94615C8.7668 5.65365 9.12471 5.59555 9.32579 5.55949Z" fill="#FFC576"></path><path d="M51.9893 5.55736C52.0858 5.54534 52.2788 5.5213 52.3753 5.50928C52.3693 6.04419 52.8981 6.9838 52.0395 7.0439L52.1682 6.68128C52.0697 6.62519 51.8706 6.517 51.7701 6.46291C51.6253 6.62118 51.8485 7.16611 51.4745 7.12003C51.378 7.0419 51.185 6.88363 51.0885 6.80349C51.0483 6.93371 50.9698 7.19616 50.9296 7.32638C50.8452 7.32037 50.6743 7.31036 50.5898 7.30635C50.4893 6.86359 50.3345 6.42484 50.3606 5.96606C50.7869 5.67957 50.7446 6.37676 51.0603 6.43085C51.185 6.15438 51.1367 5.76371 51.4806 5.63149C51.5308 5.85587 51.6334 6.30464 51.6836 6.52902C51.7882 6.41082 51.8928 6.29061 51.9993 6.17041C51.9953 6.01815 51.9913 5.70962 51.9893 5.55736Z" fill="#FFC576"></path><path d="M53.0407 6.95974C52.7995 6.48493 52.5783 5.4772 53.3061 5.33496C53.2378 5.84984 53.6158 6.68727 53.0407 6.95974Z" fill="#FFC576"></path><path d="M53.7789 5.47516C54.0584 5.27883 54.2353 5.51122 54.1991 5.79571C54.1609 6.18838 54.3741 6.7814 53.8573 6.93366C53.6281 6.48088 53.7186 5.95598 53.7789 5.47516Z" fill="#FFC576"></path><path d="M54.6956 6.92978C54.3779 6.42491 54.4825 5.64558 54.9108 5.21484C55.0375 5.74976 55.2687 6.58719 54.6956 6.92978Z" fill="#FFC576"></path><path d="M55.3511 6.88595C55.4657 6.4492 55.1601 5.49357 55.8236 5.47754C55.9784 5.94233 55.8156 6.43117 55.7753 6.90398C55.6688 6.89997 55.4576 6.89196 55.3511 6.88595Z" fill="#FFC576"></path><path d="M56.3184 5.46924C57.0503 5.79179 56.4832 6.59116 56.258 7.09001C56.0731 6.5591 56.2058 5.99814 56.3184 5.46924Z" fill="#FFC576"></path><path d="M57.1427 5.90196C57.4644 5.89395 57.3639 6.38078 57.0904 6.36475C56.7647 6.37477 56.8672 5.88193 57.1427 5.90196Z" fill="#FFC576"></path><path d="M49.5322 6.28292C50.1897 6.01246 50.2038 7.00215 50.244 7.42688L49.9525 7.63323C49.7836 7.19248 49.5905 6.75373 49.5322 6.28292Z" fill="#FFC576"></path><path d="M49.1622 7.8656C48.9993 7.38277 48.5489 6.8118 49.0496 6.37305C49.2587 6.78375 49.4719 7.20046 49.5684 7.65324C49.4658 7.70733 49.2648 7.81351 49.1622 7.8656Z" fill="#FFC576"></path><path d="M48.1066 6.8335C48.5248 6.88358 48.5972 7.38845 48.7621 7.69898C48.8988 7.95141 48.7681 8.21386 48.4645 8.17579C48.2614 7.78512 47.7306 7.24821 48.1066 6.8335Z" fill="#FFC576"></path><path d="M47.0991 7.25635C47.7003 7.35652 48.3216 8.25205 47.7405 8.72085C47.4671 8.26207 47.2057 7.78726 47.0991 7.25635Z" fill="#FFC576"></path><path d="M43.3893 14.793C45.1688 9.90869 50.6238 6.60104 55.7894 7.40642C55.2666 8.24585 54.2371 8.63652 53.7887 9.53806C53.4509 10.1431 53.4891 11.0306 54.0964 11.4573C54.5548 11.7619 55.0032 12.0904 55.4999 12.3328C55.8437 12.2707 56.0689 11.9822 56.3162 11.7659C55.9462 11.6637 55.3692 12.0023 55.152 11.5655C54.9208 11.4353 55.1158 10.9385 55.3752 11.0647C56.091 11.4393 56.9958 11.5655 57.5347 12.2086C58.0213 13.028 57.0521 13.8034 57.2894 14.6428C57.5025 15.8028 58.7371 16.542 59.8712 16.3798C60.6574 15.9691 61.4797 15.2038 61.2003 14.2221C60.8263 12.9719 59.28 12.4871 58.1198 12.8978C58.0977 12.0303 57.3578 11.5635 56.6701 11.2029C57.782 10.9024 58.52 9.95477 59.5253 9.45592C61.6688 10.5197 62.7365 13.3085 62.0327 15.5604C61.7974 16.2035 61.0877 16.9868 60.3437 16.5741C60.207 16.6562 60.0742 16.7404 59.9415 16.8245C60.412 17.0449 60.9208 17.091 61.4255 16.9808C61.5139 17.3073 61.8196 17.6539 61.6627 17.9965C60.5629 18.5014 59.3021 18.3211 58.1319 18.271C58.6285 18.6136 59.1694 18.9181 59.5474 19.3989C60.0159 19.9038 59.4288 20.609 59.833 21.1579C59.654 21.2982 59.4751 21.4404 59.2961 21.5787C58.6667 21.0437 59.5796 20.2684 59.083 19.6794C58.144 18.5074 56.5092 18.1848 55.0796 18.1087C55.8698 18.842 56.8631 19.3609 57.5287 20.2223C57.7921 20.7292 58.0092 21.2621 58.2324 21.787C57.1185 21.6347 56.0025 21.2641 55.0173 20.7332C54.1064 18.1548 53.457 15.4822 52.5843 12.8878C52.5481 12.6354 52.2264 12.6113 52.1178 12.8177C49.6969 15.4782 50.2881 20.046 53.095 22.2137C54.8645 23.518 56.5354 25.2429 56.9516 27.4787C57.7398 31.2171 57.0863 35.3001 54.8725 38.4575C51.8403 42.805 46.9804 45.5757 41.9154 46.916C36.1306 48.4186 30.0722 48.7091 24.1326 48.1862C23.7747 48.1681 23.4248 48.086 23.093 47.9578C26.3363 47.1544 29.6118 46.1727 32.4268 44.3276C35.3142 42.4984 37.7311 39.6636 38.4107 36.2538C38.7304 34.2664 38.7143 32.1267 37.7653 30.2976C37.1198 28.821 35.9556 27.6831 34.9623 26.445C35.7907 26.9378 36.4382 27.6631 37.0897 28.3582C38.2277 29.5743 39.1748 31.0088 39.6292 32.6215C40.1037 34.5088 40.0877 36.5302 39.5066 38.3934C38.8792 40.3948 37.5722 42.1038 36.1386 43.6043C34.8336 45.0308 33.2251 46.1246 31.6326 47.2005C36.973 47.5911 42.3517 46.1988 47.0347 43.6704C50.282 41.8233 53.3846 39.349 54.967 35.8831C56.3403 32.9621 56.3122 29.4742 55.0133 26.5351C54.8826 26.2827 54.7237 26.0463 54.5729 25.8059C51.4784 28.7389 46.6728 29.7506 42.6915 28.1639C42.034 27.9736 42.211 27.1622 42.1486 26.6453C42.0622 22.6785 41.9737 18.5655 43.3893 14.793Z" fill="#FFC576"></path><path d="M46.4677 7.84946C47.0126 7.74127 47.2921 8.52862 47.3625 8.94733C46.8598 9.09358 46.4275 8.27619 46.4677 7.84946Z" fill="#FFC576"></path><path d="M45.746 8.3122C46.2929 8.17596 46.496 8.85713 46.7473 9.20172C46.685 9.3059 46.5603 9.51225 46.498 9.61442C46.2346 9.19771 45.7359 8.85112 45.746 8.3122Z" fill="#FFC576"></path><path d="M60.8485 8.45661C61.52 8.29834 60.5187 9.40023 60.3599 8.93143C60.4624 8.71706 60.6233 8.55879 60.8485 8.45661Z" fill="#FFC576"></path><path d="M45.0764 9.0613C45.1971 8.98316 45.3237 8.90904 45.4504 8.83691C45.7178 9.17149 45.9812 9.50806 46.2326 9.85465C45.6595 10.2654 45.3177 9.46799 45.0764 9.0613Z" fill="#FFC576"></path><path d="M60.5972 9.47234C60.9309 9.17383 61.5724 8.28431 61.8599 9.11973L61.4276 9.19987C61.5201 9.30405 61.6146 9.40823 61.7091 9.5104C61.9906 8.91939 62.622 9.80491 62.1173 9.87703L61.8318 10.0553C61.9303 10.1275 62.0288 10.1976 62.1293 10.2677C62.4309 9.97319 62.7024 10.1535 62.9397 10.3879C62.62 10.6263 62.2982 10.8687 61.9383 11.041C61.7835 10.6063 61.5 10.2557 61.1501 9.96117L61.51 9.76684C61.2145 9.64664 60.9028 9.55648 60.5972 9.47234Z" fill="#FFC576"></path><path d="M44.5274 9.51805C45.0019 9.35777 45.3337 10.0269 45.5689 10.3695C45.0683 10.8664 44.6058 9.93676 44.3303 9.59217L44.5274 9.51805Z" fill="#FFC576"></path><path d="M43.8899 10.023C44.3906 10.021 44.6922 10.4998 45.0119 10.8163C44.9617 10.8964 44.8611 11.0567 44.8108 11.1369C44.4469 10.8363 43.8115 10.5759 43.8899 10.023Z" fill="#FFC576"></path><path d="M55.8418 10.2534C56.2399 10.2554 56.5616 10.4578 56.7305 10.8164C56.3807 10.7222 56.0771 10.5259 55.8418 10.2534Z" fill="#FFC576"></path><path d="M43.335 10.9167C43.1118 10.6162 43.5622 10.6563 43.7311 10.7504C44.0589 10.9488 44.3343 11.2172 44.6239 11.4677C44.1815 12.1108 43.5843 11.3154 43.335 10.9167Z" fill="#FFC576"></path><path d="M62.0066 11.4036C62.3203 11.1611 62.6922 11.0229 63.0622 10.8887C63.1969 11.4476 62.2841 12.0406 62.0066 11.4036Z" fill="#FFC576"></path><path d="M42.7458 11.6879C42.8102 11.5416 42.8946 11.4054 42.9731 11.2651C43.3048 11.6077 44.1433 11.8061 43.9623 12.375C43.4717 12.3971 43.0977 11.9764 42.7458 11.6879Z" fill="#FFC576"></path><path d="M62.3726 12.0307C62.6138 11.9947 62.8531 11.9606 63.0964 11.9346C62.9878 12.177 62.8411 12.3793 62.65 12.5396C62.3203 12.6698 62.463 12.191 62.3726 12.0307Z" fill="#FFC576"></path><path d="M42.2673 12.0747C42.7821 12.1148 43.2063 12.4153 43.6306 12.6797C43.5884 12.7879 43.5039 13.0023 43.4617 13.1105C42.9952 12.85 42.4181 12.6457 42.2673 12.0747Z" fill="#FFC576"></path><path d="M42.0844 12.8101C42.5388 13.0284 43.144 13.1426 43.3471 13.6655C42.8163 13.9019 42.3719 13.3971 41.9255 13.1887C41.9658 13.0945 42.0442 12.9062 42.0844 12.8101Z" fill="#FFC576"></path><path d="M58.3432 13.2805C59.3365 12.8338 60.8345 13.4508 60.8626 14.6288C60.8465 15.7107 59.441 16.2797 58.5644 15.7548C57.6274 15.3481 57.177 13.7012 58.3432 13.2805ZM57.7741 14.1901C58.0677 14.8232 58.5543 15.4763 59.3264 15.4963C59.8532 15.5925 60.7078 15.1597 60.3821 14.5387C60.0603 13.4188 58.3613 13.1623 57.7741 14.1901Z" fill="#FFC576"></path><path d="M51.917 13.6692C52.0054 13.4368 52.3714 13.2745 52.4036 13.6271C53.0912 15.9751 53.9015 18.2891 54.5792 20.6411C54.8828 21.3203 54.2031 21.8432 53.8674 22.35C51.0242 20.591 50.0932 16.46 51.917 13.6692Z" fill="#FFC576"></path><path d="M41.6603 13.6394C42.1328 13.5212 42.5611 13.964 42.9853 14.1423C42.8949 14.2765 42.8044 14.4107 42.7119 14.545C42.3781 14.2565 41.5155 14.2204 41.6603 13.6394Z" fill="#FFC576"></path><path d="M58.1521 14.1741C58.508 14.0058 58.8981 13.7814 59.3063 13.9277C59.7707 14.0298 59.9135 14.5547 60.1568 14.8953C59.3867 15.4503 58.5201 14.9093 58.1521 14.1741Z" fill="#FFC576"></path><path d="M41.2319 14.643C41.6341 14.1021 42.3077 14.7793 42.7701 14.9155C42.3539 15.4845 41.6622 14.9315 41.2319 14.643Z" fill="#FFC576"></path><path d="M41.0689 15.2659C41.5495 15.2158 42.014 15.4061 42.4222 15.6385C42.402 15.7247 42.3638 15.901 42.3437 15.9871C41.9074 15.8389 41.0187 15.8789 41.0689 15.2659Z" fill="#FFC576"></path><path d="M40.8779 16.0713C41.4188 16.0612 42.1206 16.1213 42.3437 16.7124C41.8652 16.6382 40.886 16.7524 40.8779 16.0713Z" fill="#FFC576"></path><path d="M40.6046 16.8786C41.1294 16.8726 41.6421 16.9968 42.1327 17.1771C42.006 17.4155 41.8733 17.6519 41.7386 17.8864L42.0442 18.0767C41.5375 18.257 40.7855 18.3211 40.4658 17.7962C40.8217 17.666 41.1917 17.6439 41.5737 17.7301C41.5214 17.6419 41.4149 17.4636 41.3626 17.3755C40.9886 17.4135 40.7373 17.1972 40.6046 16.8786Z" fill="#FFC576"></path><path d="M40.4517 18.4816C40.8759 18.4716 41.2982 18.5277 41.7204 18.5698C41.7305 18.676 41.7526 18.8863 41.7647 18.9925C41.3082 18.9064 40.3732 19.2209 40.4517 18.4816Z" fill="#FFC576"></path><path d="M59.5254 18.7779C60.2895 18.6918 61.0475 18.5595 61.8116 18.4834C61.6628 19.427 61.2023 20.4027 60.3377 20.8895C59.819 20.9676 60.1206 20.3025 60.0683 20.032C60.1708 19.5332 59.7586 19.1666 59.5254 18.7779Z" fill="#FFC576"></path><path d="M40.2727 19.4191C40.711 19.1947 41.2157 19.353 41.6822 19.361C41.6943 19.4671 41.7164 19.6815 41.7285 19.7877C41.2439 19.7236 40.5582 19.946 40.2727 19.4191Z" fill="#FFC576"></path><path d="M40.311 20.0723C40.7775 20.1604 41.4491 19.938 41.7286 20.4349C41.3084 20.7294 40.7815 20.5451 40.311 20.5471C40.311 20.4289 40.311 20.1905 40.311 20.0723Z" fill="#FFC576"></path><path d="M40.2166 21.3286C40.2487 20.6274 41.053 21.0141 41.5074 20.958C41.5195 21.0682 41.5416 21.2906 41.5537 21.4008C41.1073 21.3927 40.6609 21.3707 40.2166 21.3286Z" fill="#FFC576"></path><path d="M40.2485 22.0276C40.3068 21.4446 41.1051 21.8293 41.5093 21.7531C41.5193 21.8653 41.5414 22.0857 41.5515 22.1959C41.1232 22.1438 40.6205 22.274 40.2485 22.0276Z" fill="#FFC576"></path><path d="M40.2627 22.5343C40.6789 22.4942 41.0992 22.5203 41.5174 22.5303C41.5154 22.6445 41.5094 22.8709 41.5074 22.9831C41.1012 22.8929 40.0737 23.2515 40.2627 22.5343Z" fill="#FFC576"></path><path d="M40.0234 23.36C40.51 23.2999 40.9986 23.3099 41.4872 23.33C41.4852 23.4341 41.4812 23.6465 41.4792 23.7527C40.9725 23.7126 40.2607 23.9651 40.0234 23.36Z" fill="#FFC576"></path><path d="M40.0798 24.4619C40.307 23.885 41.0269 24.1915 41.4994 24.1194C41.4954 24.2315 41.4894 24.4539 41.4853 24.5661C41.0168 24.5701 40.5302 24.6262 40.0798 24.4619Z" fill="#FFC576"></path><path d="M40.1279 24.9264C40.5864 24.9104 41.0468 24.9043 41.5053 24.9023C41.5053 25.0185 41.5013 25.2489 41.4992 25.3631C41.0488 25.3571 40.5984 25.3451 40.148 25.3291C40.144 25.2269 40.134 25.0266 40.1279 24.9264Z" fill="#FFC576"></path><path d="M40.1521 25.71C40.6166 25.682 41.0811 25.684 41.5455 25.704C41.5355 25.8122 41.5134 26.0306 41.5033 26.1388C41.0288 26.0847 40.3713 26.279 40.1521 25.71Z" fill="#FFC576"></path><path d="M40.5825 26.4835C40.9907 26.4434 41.4692 26.3312 41.7668 26.7099L41.3225 26.81C41.4833 27.0464 41.6361 27.2889 41.7829 27.5353C41.7025 27.5333 41.5436 27.5273 41.4632 27.5253C41.244 27.1166 40.8841 26.8261 40.5825 26.4835Z" fill="#FFC576"></path><path d="M59.7949 49.7773C61.1119 49.7894 62.429 49.7894 63.748 49.7793C63.7842 50.7791 63.7601 51.7808 63.7681 52.7825C62.4471 52.7985 61.124 52.7725 59.803 52.7985C59.807 51.7908 59.809 50.7851 59.7949 49.7773Z" fill="#FFC576"></path><path d="M1.30493 50.8291C2.67021 50.8632 4.0355 50.8411 5.40279 50.8431C5.39676 56.1622 5.39072 61.4833 5.40882 66.8024C4.04354 66.8024 2.68027 66.7944 1.31499 66.8124C1.31901 61.4833 1.34112 56.1562 1.30493 50.8291Z" fill="#FFC576"></path><path d="M47.4772 50.8251C49.2426 50.811 51.01 50.8371 52.7754 50.811C54.939 56.1201 57 61.4693 59.1454 66.7864C57.6032 66.7924 56.061 66.7904 54.5207 66.7864C54.0744 65.5683 53.5797 64.3702 53.1132 63.1602C51.0985 63.1722 49.0837 63.1662 47.069 63.1662C46.5864 64.3702 46.1219 65.5803 45.6575 66.7924C44.2178 66.7924 42.7761 66.7844 41.3364 66.7924C43.4135 61.4813 45.4524 56.1542 47.4772 50.8251ZM48.0724 60.3253C49.4215 60.2171 50.7748 60.2912 52.128 60.2692C51.4303 58.2758 50.7908 56.2624 50.1092 54.2649C49.3934 56.2724 48.76 58.3079 48.0724 60.3253Z" fill="#FFC576"></path><path d="M59.7949 54.1665C61.122 54.1805 62.4471 54.1585 63.7741 54.1825C63.7641 58.3877 63.7681 62.5909 63.7721 66.7961C62.4491 66.8081 61.126 66.7901 59.805 66.8101C59.801 62.5949 59.8191 58.3797 59.7949 54.1665Z" fill="#FFC576"></path><path d="M69.9671 55.3088C71.0208 54.6156 72.3277 54.5655 73.5502 54.6176C73.5502 55.7916 73.5442 56.9656 73.5563 58.1416C72.1166 57.797 70.4135 58.1777 69.5047 59.4058C69.0342 59.9968 69.0362 60.7801 69.0543 61.4974C69.0643 63.2704 69.0502 65.0434 69.0643 66.8185C67.7051 66.8064 66.3458 66.8185 64.9866 66.8064C65.0087 62.8116 65.0047 58.8148 64.9886 54.8179C66.1689 54.83 67.3472 54.826 68.5275 54.8179C68.5234 55.5432 68.5174 56.2684 68.5234 56.9957C68.9195 56.3726 69.3036 55.6914 69.9671 55.3088Z" fill="#FFC576"></path><path d="M11.61 55.6393C12.6958 54.9281 14.0791 54.7277 15.3479 54.9381C15.3539 56.1261 15.2916 57.3162 15.3861 58.5022C14.7688 58.0634 13.9525 58.1897 13.2547 58.3279C12.0342 58.5883 10.8298 59.564 10.8218 60.8963C10.8137 62.8676 10.8137 64.841 10.8278 66.8124C9.46856 66.8124 8.10931 66.8064 6.74805 66.8184C6.76011 62.8977 6.75207 58.977 6.75408 55.0543C7.94242 55.0623 9.13277 55.0603 10.3211 55.0563C10.3211 55.7675 10.307 56.4807 10.299 57.1919C10.683 56.635 11.0148 56.0059 11.61 55.6393Z" fill="#FFC576"></path><path d="M31.6267 57.0876C32.4068 55.7653 33.8485 54.9359 35.3626 54.7836C36.6977 54.6554 38.1836 54.7616 39.2654 55.6391C40.3311 56.5186 40.683 57.9671 40.695 59.2934C40.695 61.7956 40.687 64.2999 40.699 66.8022C39.3096 66.7922 37.9202 66.7922 36.5328 66.8022C36.5409 64.7727 36.5288 62.7453 36.5389 60.7158C36.5529 59.9625 36.4242 59.1631 35.9658 58.5461C35.2198 57.8048 33.9913 57.9691 33.1407 58.4379C32.3143 58.8626 32.1635 59.8824 32.065 60.7098C32.0248 62.7413 32.057 64.7727 32.0509 66.8042C30.6736 66.7902 29.2982 66.8002 27.9209 66.7942C28.0697 62.8334 27.9108 58.8646 27.9993 54.9038C29.2178 54.8197 30.4444 54.8498 31.6629 54.9239C31.6508 55.6451 31.6448 56.3664 31.6267 57.0876Z" fill="#FFC576"></path><path d="M16.1943 55.6173C18.6313 54.6436 21.39 54.4894 23.9215 55.1826C25.516 55.6554 26.6541 57.192 26.7446 58.8328C26.829 60.9144 26.7868 63.0019 26.8793 65.0835C26.9295 65.6685 27.0763 66.2415 27.2493 66.8024C25.9282 66.7944 24.6072 66.7944 23.2881 66.8004C23.1534 66.3076 23.0247 65.8107 22.9161 65.3119C21.579 66.8305 19.3934 67.2552 17.4731 66.8225C15.201 66.4659 14.0046 63.4928 15.1648 61.5835C15.8223 60.4736 17.0127 59.7203 18.2834 59.514C19.7432 59.2335 21.2432 59.4879 22.709 59.2395C22.6226 58.8508 22.6749 58.36 22.323 58.0895C21.6956 57.6107 20.8692 57.5306 20.1052 57.5286C18.76 57.5105 17.4369 57.8271 16.1842 58.2939C16.1963 57.4024 16.2023 56.5088 16.1943 55.6173ZM19.329 61.9361C18.6092 62.3348 18.5147 63.4988 19.1782 63.9936C20.2278 64.4865 21.6413 64.3142 22.3813 63.3666C22.7151 62.7796 22.6427 62.0804 22.6829 61.4333C21.5589 61.4693 20.3464 61.3691 19.329 61.9361Z" fill="#FFC576"></path></svg>