<svg xmlns="http://www.w3.org/2000/svg" width="64" height="75" viewBox="0 0 64 75" fill="none"><g clip-path="url(#clip0_1050_435)"><path d="M21.416 2.84015C32.1571 1.63315 43.1101 2.32084 53.612 4.89445C53.8424 4.91741 53.9717 5.10983 54.1 5.28038C54.0902 11.6084 54.0989 17.9375 54.0956 24.2665C54.1706 28.5544 53.1284 32.8642 51.0623 36.6186C49.8559 38.8095 48.3322 40.8256 46.5422 42.5661C42.4188 46.432 37.4694 49.385 32.1636 51.284C31.9451 51.3682 31.7006 51.4338 31.4724 51.3463C26.849 49.7152 22.5115 47.2662 18.7207 44.1437C16.6068 42.4447 14.769 40.4014 13.2974 38.1175C10.8423 34.3019 9.47075 29.792 9.37511 25.2483C9.37402 18.5934 9.3762 11.9375 9.37402 5.28257C9.45662 5.17761 9.53922 5.07266 9.62073 4.9677C13.4931 3.9728 17.4458 3.29715 21.416 2.84015ZM10.1174 5.59744C10.0978 11.8959 10.1152 18.1944 10.1087 24.4939C10.1044 27.3146 10.563 30.1419 11.5172 32.7975C12.8529 36.6022 15.1907 40.0362 18.1892 42.7115C22.0898 46.1335 26.6338 48.811 31.5104 50.5581C31.7202 50.6598 31.943 50.5712 32.144 50.4947C37.1858 48.6459 41.9048 45.8493 45.8532 42.1845C47.3878 40.7173 48.7398 39.0566 49.8462 37.2407C52.1883 33.3999 53.424 28.8846 53.362 24.3791C53.3555 18.1168 53.3751 11.8544 53.3523 5.59307C47.5454 4.20349 41.6113 3.32995 35.6458 3.08505C27.0751 2.71005 18.4566 3.57594 10.1174 5.59744Z" fill="#FFC576"></path><path d="M29.4866 4.30186C36.9651 4.11709 44.4685 4.866 51.7665 6.52344C51.885 6.56935 52.1251 6.57373 52.0828 6.76615C52.0893 12.636 52.0838 18.5059 52.086 24.3769C52.1621 29.0223 50.7786 33.6852 48.1604 37.5151C47.1171 39.0872 45.8466 40.4997 44.4467 41.7581C40.7211 45.0282 36.3901 47.6149 31.7288 49.2778C26.9544 47.5668 22.5179 44.8959 18.7434 41.4925C14.0994 37.2669 11.3432 31.0165 11.3845 24.7137C11.3835 18.846 11.3889 12.9772 11.3813 7.10944C11.403 6.94545 11.3356 6.74756 11.4421 6.60762C11.7802 6.4808 12.1399 6.43269 12.4898 6.3507C18.075 5.13058 23.7743 4.44618 29.4866 4.30186ZM11.7117 6.86345C11.7062 12.8481 11.7128 18.8328 11.7095 24.8164C11.7084 30.8427 14.2896 36.8011 18.6423 40.936C22.4158 44.4476 26.912 47.159 31.7375 48.9334C35.8826 47.4028 39.7799 45.1856 43.1991 42.3726C44.9304 40.9863 46.4802 39.366 47.742 37.5347C50.3428 33.8044 51.7708 29.2618 51.7611 24.7049C51.7589 18.7585 51.7621 12.811 51.76 6.86345C38.6322 3.85361 24.8394 3.85361 11.7117 6.86345Z" fill="#FFC576"></path><path d="M38.9464 10.3677C39.2779 8.80099 40.8907 7.61695 42.4742 7.8695C42.5199 7.92198 42.609 8.02803 42.6546 8.08051C42.4438 8.70368 42.146 9.29844 41.9667 9.93145C43.16 11.2839 44.3664 12.6253 45.5597 13.9777C45.8684 14.3188 45.9042 14.8305 45.7238 15.2438C45.5684 15.5936 45.6477 15.9927 45.8542 16.3032C47.3497 18.7368 48.8234 21.1847 50.3189 23.6184C50.5797 24.0251 50.5004 24.5401 50.3917 24.9828C50.3232 25.2791 50.1211 25.5317 49.8527 25.6705C49.3005 25.9723 48.7724 26.3188 48.2692 26.6982C47.7627 27.0481 47.4475 27.6089 46.9345 27.9533C46.6617 28.0812 46.277 27.8855 46.3031 27.5575C46.2455 26.7671 45.5706 26.0882 44.7848 26.0368C44.5283 25.9919 44.2686 26.3374 44.4501 26.5583C44.8011 26.9431 45.2674 27.2 45.626 27.5783C45.7999 27.7631 45.7021 28.0375 45.6988 28.2638C45.2978 28.3261 44.9326 28.1282 44.5479 28.0572C44.0892 27.9621 43.6197 27.9172 43.1524 27.9435C42.8209 28.02 42.497 27.6581 42.6025 27.3345C42.6775 27.059 42.6872 26.7135 42.4329 26.5266C41.6069 25.8575 40.7668 25.2037 39.9528 24.5204C39.8235 24.3837 39.6257 24.4143 39.4594 24.3903C38.0248 24.3017 36.6456 23.6031 35.7153 22.5032C34.5861 23.3046 33.8514 24.6057 33.6112 25.9624C33.5264 26.567 33.446 27.2088 33.6742 27.7926C33.9894 28.6246 34.5437 29.3331 34.9295 30.1301C35.8674 32.0783 36.1087 34.3524 35.6131 36.4592C35.3664 37.6235 34.7904 38.6698 34.2763 39.7292C33.4558 41.3593 32.5733 42.9577 31.6343 44.5211C31.5419 44.7124 31.4028 44.5091 31.3995 44.3866C29.102 37.9023 24.4145 32.3462 18.5022 28.9012C18.9108 25.3086 20.2346 21.8145 22.38 18.9063C26.0078 13.8782 31.9744 10.6355 38.1552 10.4169C38.4193 10.4103 38.6823 10.3906 38.9464 10.3677Z" fill="#FFC576"></path><path d="M24.1622 11.8434C28.7116 9.06203 34.2044 7.89658 39.4842 8.59301C39.1593 9.07734 38.7506 9.49826 38.4474 10.0001C34.3425 10.1083 30.2864 11.4815 26.9314 13.8605C24.3339 15.7093 22.1472 18.144 20.6116 20.9505C19.2965 23.3361 18.4542 25.9808 18.1303 28.6889C16.5794 27.8645 15.0014 27.0894 13.3875 26.3962C14.8764 20.3656 18.8629 15.026 24.1622 11.8434Z" fill="#FFC576"></path><path d="M33.9675 27.4307C33.6763 25.7579 34.5414 24.0972 35.738 22.9854C36.0053 23.2149 36.2618 23.4555 36.5118 23.7047C36.3401 24.0426 36.1792 24.423 36.2694 24.809C36.3031 25.2157 36.5879 25.5174 36.8074 25.8367C38.0181 27.5258 38.8724 29.4653 39.3517 31.4901C39.5082 32.0936 39.519 32.7233 39.5006 33.3443C39.4397 34.5174 39.2191 35.7015 38.7137 36.7696C37.0182 40.0265 34.6283 42.9281 31.7222 45.1639C33.3111 42.6406 34.7033 39.9883 35.8206 37.219C36.3379 35.602 36.4238 33.8407 36.0205 32.1887C35.801 31.266 35.4456 30.3782 35.0044 29.5418C34.6544 28.8399 34.0827 28.2343 33.9675 27.4307Z" fill="#FFC576"></path><path d="M43.9685 57.4437C44.488 56.8391 45.2803 56.4706 46.0791 56.5165C47.1116 56.5165 48.0789 57.2195 48.4571 58.1762C48.6951 58.7316 48.6734 59.3624 48.5484 59.944C49.7298 59.9462 50.9112 59.92 52.0914 59.9571C52.0784 61.0253 52.0925 62.0923 52.0849 63.1605C53.9977 61.0614 56.8245 59.7855 59.6688 59.9123C60.8067 59.8719 61.9456 59.8883 63.0846 59.8839C63.0912 63.5114 63.0955 67.139 63.0825 70.7665C62.1663 70.76 61.2501 70.7676 60.335 70.7611C60.298 71.4728 60.0883 72.2064 59.5764 72.7224C58.7667 73.6036 57.3506 73.831 56.3116 73.2385C55.4247 72.7552 54.8824 71.7527 54.9096 70.7447C52.4914 70.7283 50.0743 70.7348 47.6561 70.7425C47.6583 68.9571 47.6572 67.1718 47.6572 65.3864C46.0128 65.7188 44.6021 67.0286 44.1815 68.6674C43.974 69.3485 44.0544 70.0657 44.0457 70.7654C42.735 70.76 41.4243 70.7687 40.1136 70.7611C40.1081 71.0191 40.1027 71.2771 40.094 71.5362C37.0259 71.5231 33.9589 71.5253 30.8908 71.5351C30.605 71.815 30.3735 72.2141 30.0061 72.3715C27.889 72.3813 25.7719 72.3682 23.6537 72.3781C24.6112 71.5493 25.4589 70.608 26.3588 69.7203C25.8121 69.2436 25.36 68.6674 25.0046 68.0355C23.4483 69.6055 21.9224 71.2049 20.3617 72.7705C18.2369 72.8012 16.1111 72.7793 13.9853 72.7815C14.1983 72.4524 14.5222 72.2239 14.7863 71.9418C16.773 69.9367 18.738 67.9098 20.7138 65.8937C20.9486 65.6401 21.242 65.3329 21.1507 64.9535C21.1051 64.6813 20.879 64.5074 20.6595 64.3751C18.2619 66.7848 15.9025 69.2326 13.5223 71.6587C13.1713 71.8642 12.7192 71.6685 12.3344 71.7713C12.1171 71.9539 11.9366 72.1747 11.7421 72.3813C7.93496 72.3573 4.12783 72.3966 0.321777 72.3628C1.17602 71.58 1.9694 70.7359 2.78778 69.916C1.47598 68.955 0.558704 67.444 0.415244 65.8074C0.187011 63.7968 1.15863 61.7283 2.80951 60.5836C2.64432 60.3617 2.47586 60.1419 2.31392 59.9189C3.54094 59.0891 5.05489 58.6878 6.52862 58.8562C8.26536 59.0257 9.89994 59.9746 10.9444 61.3762C11.8117 62.5395 12.2888 64.0089 12.1975 65.4662C12.8648 64.6998 13.6299 64.0286 14.3092 63.2742C14.545 63.0402 14.7559 62.7746 15.0243 62.5789C16.1003 62.5428 17.1795 62.5756 18.2565 62.5636C18.2619 61.6069 18.2565 60.6514 18.2587 59.6948C19.201 59.698 20.1443 59.6893 21.0866 59.6969C22.4951 59.7265 23.8406 60.4557 24.7231 61.5457C25.3708 60.5016 26.3457 59.6565 27.5043 59.241C28.2357 58.959 29.0226 58.8715 29.8018 58.8693C29.8203 59.123 29.8333 59.3766 29.8399 59.6313C30.6908 59.6762 31.5527 59.8041 32.3341 60.166C32.8721 60.3912 33.359 60.717 33.847 61.034C33.2927 60.3376 33.0232 59.3875 33.2829 58.5162C33.4883 57.7082 34.1187 57.0468 34.8816 56.7396C35.7739 56.4039 36.8466 56.5712 37.5628 57.2141C38.4464 57.9455 38.717 59.2651 38.2703 60.3114C39.706 61.2046 40.832 62.58 41.4112 64.1762C42.2948 63.0523 43.4327 62.1273 44.7282 61.5293C44.1837 61.1969 43.711 60.7093 43.5012 60.0949C43.1686 59.2126 43.3534 58.1554 43.9685 57.4437ZM45.5836 57.3529C44.6554 57.5508 43.9859 58.5479 44.1761 59.4881C44.3304 60.4207 45.2738 61.127 46.2063 60.9881C47.1823 60.8832 47.9452 59.8894 47.7887 58.913C47.6746 57.8843 46.591 57.0971 45.5836 57.3529ZM35.3479 57.4316C34.4056 57.6711 33.7665 58.725 34.0426 59.6751C34.2654 60.5989 35.2674 61.2439 36.1923 61.022C37.1629 60.8569 37.8519 59.7724 37.6052 58.8157C37.4128 57.8307 36.313 57.1364 35.3479 57.4316ZM4.56582 60.6918C3.15838 61.1029 1.97592 62.2246 1.48794 63.6142C1.08581 64.6922 1.11624 65.92 1.5488 66.9837C2.03026 68.1907 3.04318 69.1649 4.25716 69.6076C3.69745 70.2516 3.04209 70.8037 2.48238 71.4477C3.77244 71.4433 5.06249 71.4498 6.35255 71.4444C7.01769 70.6922 7.76977 70.0264 8.4436 69.284C8.89571 68.7877 9.44021 68.3711 9.79451 67.7917C10.4325 66.8329 10.702 65.6291 10.5173 64.4899C10.2999 63.0216 9.3337 61.6977 8.02517 61.0198C6.97204 60.4666 5.70263 60.3387 4.56582 60.6918ZM19.1542 60.5956C19.151 61.5763 19.1597 62.557 19.1455 63.5377C19.8878 63.471 20.7095 63.3627 21.3844 63.7574C22.2082 64.2133 22.3267 65.5253 21.6311 66.1463C19.7704 68.041 17.9239 69.9488 16.0753 71.8544C17.4142 71.862 18.7543 71.8587 20.0932 71.8555C21.2963 70.6091 22.519 69.3824 23.7124 68.1273C24.0601 67.7512 24.5057 67.4407 24.709 66.9531C24.9339 66.4229 25.0459 65.85 25.0948 65.2782C25.1296 63.4338 24.0471 61.5304 22.2897 60.8668C21.2953 60.4404 20.2008 60.6361 19.1542 60.5956ZM29.116 60.6623C27.8358 60.8744 26.6652 61.655 25.9588 62.7494C25.1915 63.9225 24.9894 65.4619 25.4752 66.7837C25.8632 67.936 26.7337 68.8795 27.7879 69.4546C27.1282 70.1018 26.487 70.7676 25.8545 71.4411C27.1793 71.4531 28.5042 71.4444 29.8301 71.4433C30.3311 70.9174 30.8462 70.4025 31.3331 69.8624C35.2903 69.8536 39.2474 69.8711 43.2045 69.8536C43.2012 68.7713 43.4979 67.6813 44.1196 66.7924C44.9195 65.5832 46.2465 64.7829 47.6626 64.5501C47.6507 63.5978 47.6594 62.6466 47.6583 61.6955C47.1236 61.7359 46.5921 61.8278 46.0813 61.9918C43.1295 62.932 40.9124 65.6423 40.2864 68.6587C40.4298 67.0012 40.0984 65.2793 39.2289 63.8525C38.4105 62.4892 37.014 61.4823 35.4544 61.1838C35.1403 62.1711 34.7827 63.1441 34.4675 64.1313C35.2946 64.1302 36.1445 64.4517 36.6694 65.1142C37.1346 65.6466 37.3422 66.3748 37.2683 67.0767C36.2282 67.0668 35.1881 67.0767 34.1469 67.0712C34.8729 65.3504 34.4273 63.2316 33.0895 61.9404C32.0657 60.9149 30.543 60.4076 29.116 60.6623ZM48.4408 60.7345C48.4495 63.7957 48.443 66.8569 48.4441 69.9181C50.3547 69.916 52.2642 69.9138 54.1749 69.9192C54.1521 68.8194 54.5053 67.7206 55.128 66.8208C55.9334 65.6346 57.243 64.8474 58.6395 64.5971C58.6276 63.6273 58.5852 62.6587 58.6135 61.69C55.2976 62.1579 52.424 64.7764 51.5111 68.0005C51.4296 68.2673 51.4122 68.5537 51.2894 68.8084C51.2752 66.1135 51.3285 63.4152 51.2828 60.7203C50.3362 60.7465 49.3885 60.7203 48.4408 60.7345ZM59.5046 60.7574C59.5003 63.8208 59.5036 66.8832 59.5046 69.9455C60.4458 69.9444 61.3859 69.9433 62.3271 69.9477C62.3315 66.8853 62.3271 63.823 62.3293 60.7607C61.387 60.7552 60.4458 60.7618 59.5046 60.7574ZM9.2022 69.7213C8.62075 70.2844 8.09907 70.9087 7.49371 71.4477C8.79355 71.4411 10.0945 71.4553 11.3943 71.4389C13.7429 69.0052 16.1133 66.5945 18.4782 64.1784C18.6575 63.9805 18.838 63.7815 19.0597 63.6317C18.9586 63.5421 18.8608 63.3945 18.6988 63.4601C17.5729 63.4677 16.448 63.4732 15.3232 63.459C13.2778 65.5406 11.2367 67.6277 9.2022 69.7213ZM57.1093 65.4378C56.2985 65.6149 55.6606 66.3966 55.6943 67.2396C55.6747 68.2727 56.6735 69.1922 57.7005 69.0435C58.6341 68.9615 59.409 68.065 59.3351 67.1204C59.3068 66.038 58.1548 65.1503 57.1093 65.4378ZM57.3984 69.1025C56.5028 69.2141 55.7388 70.0329 55.7769 70.9557C55.7638 71.9615 56.7006 72.8471 57.7005 72.7607C58.7145 72.7388 59.5449 71.7232 59.4112 70.7206C59.3199 69.7487 58.3581 68.9823 57.3984 69.1025Z" fill="#FFC576"></path><path d="M5.26027 63.4819C6.33405 63.1058 7.61106 63.9083 7.71975 65.0508C7.90016 66.0665 7.11765 67.1138 6.09821 67.2221C5.02008 67.4189 3.91152 66.4841 3.93543 65.381C3.87674 64.5381 4.46472 63.7246 5.26027 63.4819Z" fill="#FFC576"></path><path d="M29.2746 63.4832C29.9593 63.2678 30.7603 63.4635 31.2407 64.0091C31.8841 64.699 31.9123 65.8677 31.2841 66.5783C30.7451 67.2442 29.7376 67.4322 28.9866 67.0375C28.3019 66.6986 27.8683 65.9169 27.9519 65.1527C27.9998 64.3929 28.5519 63.703 29.2746 63.4832Z" fill="#FFC576"></path></g><defs><clipPath id="clip0_1050_435"><rect width="63.253" height="75" fill="white"></rect></clipPath></defs></svg>